# xmcd
#
# Track frame offsets: 
#        150
#        23608
#        49270
#        81123
#        103717
#        122017
#        146098
#        172193
#        225123
#        242049
#        256804
#        286241
#        311924
#        335067
#
# Disc length: 4720 seconds
#
# Revision: 4
# Processed by: cddbd v1.5.2PL0 Copyright (c) Steve Scherf et al.
# Submitted via: ExactAudioCopy v0.99pb3
#
DISCID=c1126e0e
DTITLE=Tom Waits - 1999 - At The Cirkus [Disc 02]
DYEAR=1999
DGENRE=Other
TTITLE0=Shore Leave
TTITLE1=Pony
TTITLE2=Filipino Box Spring Hog
TTITLE3=Come On Up To The House
TTITLE4=House Where Nobody Lives
TTITLE5=Singapore
TTITLE6=The Heart Of Saturday Night
TTITLE7=Going Out West
TTITLE8=I Can't Wait To Get Off Work
TTITLE9=Picture In A Frame
TTITLE10=Who Are You
TTITLE11=Heartattack And Vine
TTITLE12=Time
TTITLE13=Chocolate Jesus
EXTD=YEAR: 1999
EXTT0=
EXTT1=
EXTT2=
EXTT3=
EXTT4=
EXTT5=
EXTT6=
EXTT7=
EXTT8=
EXTT9=
EXTT10=
EXTT11=
EXTT12=
EXTT13=
PLAYORDER=
